PathFileType	4	(x/y/z)	S04_M20_T03.trc
DataRate	CameraRate	NumFrames	NumMarkers	Units	OrigDataRate	OrigDataStartFrame	OrigNumFrames
240	240	9	51	mm	240	71	565
Frame#	Time	Sternum			R.Acromium			L.Acromium			Top.Head			R.ASIS			L.ASIS			R.PSIS			L.PSIS			R.Great.Tro			L.Great.Tro			R.Iliac.Crest			L.Iliac.Crest			V.Sacral			R.Thigh.Upper.Post			R.Thigh.Lower.Ant			R.Thigh.Lower.Post			R.Thigh.Upper.Ant			R.Knee.Lat			R.Knee.Med			R.Shank.Upper.Post			R.Shank.Lower.Ant			R.Shank.Lower.Post			R.Shank.Upper.Ant			R.Ankle.Lat			R.Ankle.Med			R.Heel.Upper			R.Heel.Med			R.Heel.Lat			R.Toe.Lat			R.Toe.Med			R.Toe.Tip			L.Thigh.Upper.Post			L.Thigh.Lower.Ant			L.Thigh.Lower.Post			L.Thigh.Upper.Ant			L.Knee.Lat			L.Knee.Med			L.Shank.Upper.Post			L.Shank.Lower.Ant			L.Shank.Lower.Post			L.Shank.Upper.Ant			L.Ankle.Lat			L.Ankle.Med			L.Heel.Upper			L.Heel.Med			L.Heel.Lat			L.Toe.Lat			L.Toe.Med			L.Toe.Tip			Cervical.Spine			Back			
		X1	Y1	Z1	X2	Y2	Z2	X3	Y3	Z3	X4	Y4	Z4	X5	Y5	Z5	X6	Y6	Z6	X7	Y7	Z7	X8	Y8	Z8	X9	Y9	Z9	X10	Y10	Z10	X11	Y11	Z11	X12	Y12	Z12	X13	Y13	Z13	X14	Y14	Z14	X15	Y15	Z15	X16	Y16	Z16	X17	Y17	Z17	X18	Y18	Z18	X19	Y19	Z19	X20	Y20	Z20	X21	Y21	Z21	X22	Y22	Z22	X23	Y23	Z23	X24	Y24	Z24	X25	Y25	Z25	X26	Y26	Z26	X27	Y27	Z27	X28	Y28	Z28	X29	Y29	Z29	X30	Y30	Z30	X31	Y31	Z31	X32	Y32	Z32	X33	Y33	Z33	X34	Y34	Z34	X35	Y35	Z35	X36	Y36	Z36	X37	Y37	Z37	X38	Y38	Z38	X39	Y39	Z39	X40	Y40	Z40	X41	Y41	Z41	X42	Y42	Z42	X43	Y43	Z43	X44	Y44	Z44	X45	Y45	Z45	X46	Y46	Z46	X47	Y47	Z47	X48	Y48	Z48	X49	Y49	Z49	X50	Y50	Z50	X51	Y51	Z51	

71	0.29167	-499.65	1257.3	259.86	-631.09	1482.8	434.01	-652.33	1461.1	83.864	-656.1	1804.3	237.27	-535.42	961.4	412.93	-508.7	993.04	163.77	-736.64	1009.4	290.22	-721.52	1017.7	211.39	-638.51	881.8	459.84	-610.48	909.9	81.974	-622.89	1059.2	447.6	-614.48	1064.7	104.44	-750.61	972.14	247.3	-667.65	623.55	450.35	-598.02	532.62	429.83	-675.38	533.29	438.06	-580.3	641.43	446.27	-672.17	465.04	434.14	-678.53	462.57	298.96	-890.48	384.98	421.39	-914.86	284.19	385.96	-947.62	344.47	406.34	-859.93	327.55	409.28	-1036.2	271.11	387.05	-1004.9	255.09	302.64	-1085.8	310.37	325.28	-1103.6	289.25	292.89	-1116.3	292.33	355.76	-1054.5	139.57	418.42	-1020.2	106.84	305.95	-980.59	61.194	360.51	-554.93	668.38	102.37	-446.37	606.37	120.3	-518.55	589.04	122.34	-487.46	683.69	97.815	-450.55	514.63	138.24	-454.76	507.6	263.3	-518.74	327.15	138.69	-442.86	246.8	151.06	-507.49	250.68	149.79	-453.74	322.09	139.88	-457.67	97.016	169.35	-457.63	109.08	263.49	-535.38	68.563	217.95	-527.44	44.643	253.34	-531.69	38.23	191.19	-347.01	41.817	153.86	-316.96	53.796	268.88	-260.23	66.45	220.35	-695.15	1522.2	264.97	-760.89	1262	255.49
72	0.29583	-494.53	1258.4	259.43	-625.93	1483.9	433.68	-647.42	1462.3	83.568	-650.93	1805.4	236.96	-529.67	962.64	412.34	-503.68	994.04	163.02	-731.26	1010.4	290.37	-716.35	1018.7	211.48	-632.18	882.82	459.58	-605.89	910.69	81.779	-617.2	1060.3	447.28	-609.43	1065.7	104.15	-745.36	973.18	247.49	-658.67	623.99	450.18	-588.23	533.73	429.38	-665.59	533.68	437.89	-571.51	642.7	445.79	-661.75	465.63	433.79	-668.47	463.3	298.49	-880.09	386.22	420.97	-904.74	285.4	385.78	-937.32	345.87	406.04	-849.7	328.69	409.03	-1026.1	272.8	386.81	-994.86	256.32	302.44	-1076.1	311.47	324.69	-1093.8	290	292.49	-1106.4	293.58	355.38	-1044	141.62	419.22	-1009.7	107.96	306.98	-969.92	62.866	361.84	-551.45	668.98	102.27	-443.29	606.25	120.19	-515.46	589.38	122.23	-483.95	683.8	97.682	-448.12	514.51	138.2	-452.17	507.6	263.28	-517.31	327.35	138.88	-441.78	246.66	151.16	-506.39	250.84	150.02	-452.34	321.99	139.97	-457.42	97.168	169.58	-457.31	109.07	263.74	-535.28	68.709	218.11	-527.37	44.7	253.44	-531.59	38.468	191.26	-346.91	41.708	153.81	-316.78	53.188	268.97	-260.04	65.684	220.44	-690.07	1523.2	264.69	-755.75	1263.1	255.22
73	0.3	-489.44	1259.5	259.02	-620.8	1485	433.35	-642.52	1463.4	83.28	-645.77	1806.6	236.68	-523.94	963.91	411.76	-498.68	995.04	162.26	-725.9	1011.5	290.55	-711.2	1019.7	211.58	-625.87	883.86	459.35	-601.34	911.49	81.599	-611.53	1061.5	446.97	-604.38	1066.8	103.87	-740.14	974.24	247.69	-649.71	624.5	450.03	-578.48	534.92	428.95	-655.82	534.13	437.74	-562.76	644.04	445.34	-651.35	466.28	433.45	-658.41	464.1	298.03	-869.65	387.37	420.55	-894.5	286.5	385.61	-926.94	347.12	405.74	-839.38	329.75	408.79	-1015.9	274.25	386.58	-984.69	257.37	302.26	-1066.2	312.32	324.15	-1083.8	290.51	292.14	-1096.4	294.55	355.05	-1033.1	143.4	419.94	-999.05	108.92	307.91	-958.94	64.416	363.03	-548.03	669.59	102.17	-440.3	606.13	120.09	-512.46	589.73	122.12	-480.51	683.91	97.56	-445.79	514.39	138.17	-449.7	507.59	263.25	-515.95	327.53	139.06	-440.75	246.52	151.27	-505.34	251	150.25	-451.01	321.89	140.05	-457.19	97.323	169.8	-457.02	109.06	263.98	-535.19	68.85	218.28	-527.31	44.759	253.54	-531.49	38.701	191.33	-346.83	41.616	153.77	-316.61	52.618	269.04	-259.86	64.962	220.5	-685	1524.3	264.41	-750.63	1264.1	254.94
74	0.30417	-484.37	1260.7	258.61	-615.69	1486.1	433.03	-637.65	1464.6	82.997	-640.63	1807.7	236.43	-518.26	965.18	411.19	-493.71	996.04	161.51	-720.56	1012.6	290.73	-706.09	1020.8	211.7	-619.61	884.94	459.13	-596.82	912.3	81.436	-605.89	1062.7	446.66	-599.34	1067.9	103.59	-734.95	975.32	247.91	-640.79	625.08	449.9	-568.77	536.18	428.53	-646.07	534.67	437.6	-554.04	645.44	444.93	-640.96	467.01	433.12	-648.35	464.98	297.58	-859.18	388.42	420.14	-884.14	287.49	385.46	-916.5	348.24	405.45	-828.97	330.75	408.55	-1005.5	275.46	386.37	-974.39	258.23	302.09	-1056.3	312.93	323.67	-1073.7	290.78	291.83	-1086.2	295.23	354.77	-1022.1	144.89	420.58	-988.1	109.72	308.74	-947.65	65.832	364.07	-544.68	670.23	102.08	-437.39	606	119.99	-509.55	590.1	122.01	-477.15	684.02	97.444	-443.55	514.27	138.13	-447.36	507.57	263.2	-514.66	327.71	139.22	-439.78	246.4	151.36	-504.35	251.15	150.46	-449.74	321.8	140.12	-456.98	97.48	170.02	-456.75	109.06	264.22	-535.1	68.986	218.44	-527.25	44.818	253.65	-531.39	38.93	191.39	-346.75	41.537	153.72	-316.46	52.084	269.1	-259.69	64.283	220.55	-679.96	1525.4	264.14	-745.53	1265.2	254.67
75	0.30833	-479.33	1261.8	258.2	-610.61	1487.2	432.71	-632.79	1465.7	82.72	-635.5	1808.8	236.2	-512.61	966.47	410.63	-488.76	997.04	160.76	-715.25	1013.7	290.93	-700.99	1021.8	211.83	-613.38	886.04	458.92	-592.33	913.11	81.286	-600.28	1063.9	446.36	-594.32	1069	103.32	-729.78	976.42	248.15	-631.89	625.71	449.8	-559.09	537.51	428.14	-636.36	535.27	437.47	-545.36	646.9	444.55	-630.6	467.8	432.79	-638.28	465.92	297.16	-848.68	389.37	419.73	-873.66	288.35	385.32	-905.99	349.2	405.16	-818.48	331.67	408.33	-994.98	276.44	386.19	-963.97	258.92	301.95	-1046.2	313.29	323.25	-1063.5	290.82	291.57	-1076	295.62	354.54	-1010.8	146.1	421.14	-976.91	110.36	309.46	-936.07	67.106	364.95	-541.39	670.88	101.99	-434.56	605.86	119.89	-506.73	590.48	121.89	-473.85	684.14	97.333	-441.41	514.15	138.09	-445.14	507.53	263.13	-513.44	327.88	139.38	-438.86	246.29	151.44	-503.42	251.3	150.65	-448.55	321.72	140.19	-456.79	97.638	170.23	-456.49	109.07	264.45	-535.02	69.118	218.59	-527.2	44.88	253.75	-531.3	39.153	191.45	-346.68	41.469	153.67	-316.3	51.586	269.16	-259.54	63.645	220.59	-674.94	1526.5	263.87	-740.45	1266.3	254.4
76	0.3125	-474.3	1263	257.81	-605.55	1488.4	432.39	-627.95	1466.9	82.449	-630.39	1810	236.01	-507	967.78	410.08	-483.83	998.04	160.02	-709.96	1014.8	291.14	-695.92	1022.9	211.97	-607.19	887.16	458.74	-587.87	913.93	81.149	-594.69	1065.2	446.07	-589.31	1070.1	103.05	-724.64	977.53	248.39	-623.02	626.41	449.72	-549.45	538.92	427.76	-626.66	535.93	437.36	-536.71	648.41	444.21	-620.27	468.65	432.47	-628.2	466.91	296.75	-838.14	390.23	419.35	-863.07	289.11	385.19	-895.42	350.02	404.88	-807.92	332.52	408.12	-984.36	277.17	386.04	-953.44	259.44	301.83	-1036.1	313.41	322.9	-1053.2	290.63	291.37	-1065.6	295.73	354.37	-999.29	147.03	421.62	-965.47	110.85	310.07	-924.21	68.232	365.67	-538.16	671.56	101.91	-431.82	605.73	119.79	-504	590.87	121.76	-470.61	684.26	97.224	-439.36	514.04	138.05	-443.04	507.49	263.04	-512.28	328.04	139.52	-437.99	246.18	151.52	-502.53	251.45	150.84	-447.42	321.65	140.24	-456.6	97.796	170.43	-456.26	109.09	264.68	-534.94	69.244	218.74	-527.15	44.942	253.85	-531.21	39.37	191.51	-346.61	41.411	153.62	-316.16	51.123	269.2	-259.4	63.047	220.61	-669.93	1527.6	263.62	-735.39	1267.3	254.14
77	0.31667	-469.3	1264.1	257.41	-600.51	1489.5	432.08	-623.12	1468.1	82.183	-625.3	1811.1	235.84	-501.42	969.09	409.53	-478.93	999.03	159.28	-704.69	1015.9	291.36	-690.88	1024	212.12	-601.04	888.31	458.58	-583.44	914.76	81.024	-589.14	1066.4	445.78	-584.31	1071.2	102.79	-719.52	978.64	248.65	-614.18	627.16	449.67	-539.84	540.39	427.4	-617	536.66	437.27	-528.1	649.98	443.9	-609.95	469.57	432.16	-618.13	467.96	296.37	-827.58	390.99	418.98	-852.38	289.74	385.09	-884.8	350.7	404.62	-797.29	333.3	407.92	-973.62	277.66	385.92	-942.78	259.78	301.73	-1025.8	313.29	322.62	-1042.8	290.21	291.22	-1055.1	295.56	354.25	-987.59	147.67	422.02	-953.8	111.18	310.57	-912.09	69.206	366.25	-535	672.25	101.83	-429.16	605.59	119.69	-501.35	591.27	121.64	-467.43	684.38	97.116	-437.4	513.92	138	-441.06	507.43	262.94	-511.19	328.21	139.64	-437.18	246.09	151.58	-501.7	251.6	151.01	-446.36	321.58	140.29	-456.44	97.953	170.62	-456.04	109.11	264.89	-534.87	69.365	218.89	-527.1	45.005	253.95	-531.12	39.58	191.57	-346.55	41.361	153.57	-316.02	50.694	269.24	-259.27	62.488	220.62	-664.94	1528.7	263.36	-730.34	1268.4	253.88
78	0.32083	-464.31	1265.3	257.03	-595.49	1490.6	431.76	-618.31	1469.3	81.922	-620.22	1812.2	235.69	-495.88	970.4	409	-474.05	1000	158.56	-699.45	1017	291.57	-685.86	1025.1	212.28	-594.94	889.46	458.43	-579.02	915.59	80.909	-583.62	1067.7	445.49	-579.33	1072.3	102.53	-714.42	979.77	248.91	-605.36	627.96	449.64	-530.26	541.92	427.06	-607.35	537.45	437.19	-519.53	651.6	443.62	-599.67	470.54	431.85	-608.04	469.06	296	-817.01	391.65	418.63	-841.59	290.27	384.99	-874.12	351.23	404.38	-786.6	333.99	407.74	-962.78	277.92	385.82	-932.02	259.96	301.65	-1015.5	312.95	322.41	-1032.3	289.58	291.13	-1044.5	295.12	354.18	-975.68	148.05	422.34	-941.9	111.37	310.96	-899.71	70.028	366.68	-531.89	672.95	101.75	-426.58	605.46	119.59	-498.79	591.69	121.5	-464.32	684.51	97.007	-435.52	513.82	137.94	-439.19	507.36	262.81	-510.17	328.37	139.76	-436.42	246.01	151.63	-500.92	251.75	151.18	-445.36	321.52	140.32	-456.29	98.109	170.8	-455.83	109.14	265.09	-534.8	69.482	219.03	-527.06	45.067	254.03	-531.04	39.783	191.62	-346.49	41.318	153.52	-315.89	50.297	269.28	-259.14	61.966	220.61	-659.97	1529.8	263.11	-725.3	1269.5	253.62
79	0.325	-459.34	1266.4	256.65	-590.48	1491.7	431.45	-613.51	1470.4	81.666	-615.16	1813.3	235.57	-490.36	971.71	408.48	-469.19	1001	157.85	-694.23	1018.2	291.79	-680.86	1026.1	212.43	-588.87	890.63	458.3	-574.62	916.43	80.802	-578.13	1068.9	445.21	-574.38	1073.4	102.28	-709.36	980.89	249.18	-596.57	628.81	449.63	-520.72	543.51	426.73	-597.74	538.3	437.13	-510.99	653.26	443.37	-589.41	471.56	431.56	-597.96	470.2	295.66	-806.41	392.21	418.3	-830.7	290.68	384.91	-863.4	351.61	404.15	-775.84	334.62	407.57	-951.83	277.96	385.75	-921.15	259.97	301.58	-1005.1	312.37	322.27	-1021.7	288.72	291.1	-1033.8	294.41	354.16	-963.58	148.15	422.59	-929.77	111.4	311.26	-887.09	70.697	366.97	-528.85	673.66	101.67	-424.07	605.32	119.48	-496.31	592.12	121.37	-461.26	684.64	96.896	-433.73	513.71	137.87	-437.42	507.28	262.67	-509.2	328.53	139.88	-435.71	245.94	151.66	-500.19	251.91	151.33	-444.42	321.47	140.35	-456.15	98.262	170.97	-455.65	109.17	265.27	-534.74	69.593	219.16	-527.01	45.13	254.12	-530.97	39.978	191.67	-346.44	41.28	153.47	-315.77	49.932	269.3	-259.03	61.48	220.6	-655.01	1530.9	262.87	-720.29	1270.6	253.36
